<svg xmlns="http://www.w3.org/2000/svg" xmlns:xlink="http://www.w3.org/1999/xlink" width="559" zoomAndPan="magnify" viewBox="0 0 419.25 297.75" height="396" preserveAspectRatio="xMidYMid meet" version="1.0"><defs><clipPath id="b2d6727a54"><path d="M 55 50 L 360 50 L 360 244 L 55 244 Z M 55 50 " clip-rule="nonzero"/></clipPath><clipPath id="5d00ca1c4e"><path d="M 78.1875 29.851562 L 374.421875 110.246094 L 325.992188 288.710938 L 29.753906 208.316406 Z M 78.1875 29.851562 " clip-rule="nonzero"/></clipPath><clipPath id="efe9732417"><path d="M 78.1875 29.851562 L 374.421875 110.246094 L 325.992188 288.710938 L 29.753906 208.316406 Z M 78.1875 29.851562 " clip-rule="nonzero"/></clipPath><clipPath id="8fcc68db70"><path d="M 78.386719 29.90625 L 374.460938 110.253906 L 325.984375 288.878906 L 29.910156 208.53125 Z M 78.386719 29.90625 " clip-rule="nonzero"/></clipPath></defs><g clip-path="url(#b2d6727a54)"><g clip-path="url(#5d00ca1c4e)"><g clip-path="url(#efe9732417)"><g clip-path="url(#8fcc68db70)"><path fill="#ececec" d="M 59.382812 153.640625 C 44.933594 94.847656 75.179688 51.515625 130.511719 50.308594 C 192.46875 48.957031 213.117188 81.710938 251.0625 92.339844 C 262.527344 95.550781 274.386719 94.460938 292.691406 94.0625 C 345.75 92.902344 385.207031 166.398438 340.277344 191.714844 C 312.785156 207.203125 295.664062 182.589844 263.964844 202.761719 C 234.15625 221.730469 219.667969 239.207031 184.632812 242.664062 C 123.722656 248.671875 72.367188 206.445312 59.382812 153.640625 " fill-opacity="1" fill-rule="evenodd"/></g></g></g></g></svg>